<?xml version="1.0" encoding="UTF-8" standalone="no"?>
<!-- Created with Inkscape (http://www.inkscape.org/) -->

<svg
   width="86.064613mm"
   height="74.994423mm"
   viewBox="0 0 86.064613 74.994423"
   version="1.1"
   id="svg5"
   xml:space="preserve"
   inkscape:version="1.2.2 (732a01da63, 2022-12-09)"
   sodipodi:docname="croissant.svg"
   xmlns:inkscape="http://www.inkscape.org/namespaces/inkscape"
   xmlns:sodipodi="http://sodipodi.sourceforge.net/DTD/sodipodi-0.dtd"
   xmlns="http://www.w3.org/2000/svg"
   xmlns:svg="http://www.w3.org/2000/svg"><sodipodi:namedview
     id="namedview7"
     pagecolor="#ffffff"
     bordercolor="#000000"
     borderopacity="0.25"
     inkscape:showpageshadow="2"
     inkscape:pageopacity="0.0"
     inkscape:pagecheckerboard="0"
     inkscape:deskcolor="#d1d1d1"
     inkscape:document-units="mm"
     showgrid="false"
     inkscape:zoom="0.914906"
     inkscape:cx="119.68443"
     inkscape:cy="-95.091736"
     inkscape:window-width="5120"
     inkscape:window-height="1369"
     inkscape:window-x="-8"
     inkscape:window-y="-8"
     inkscape:window-maximized="1"
     inkscape:current-layer="layer1" /><defs
     id="defs2" /><g
     inkscape:label="Layer 1"
     inkscape:groupmode="layer"
     id="layer1"
     transform="translate(-51.446696,-173.63984)"><path
       style="fill:#000000;stroke-width:0.264583"
       d="m 61.441879,248.48304 c -4.377352,-1.4341 -6.847658,-5.12473 -8.079958,-12.07145 -0.573628,-3.23365 -0.797965,-10.48471 -0.4228,-13.66579 0.293675,-2.49011 0.285101,-2.5799 -0.386426,-4.0467 -2.152763,-4.70226 -1.195561,-9.3702 3.158833,-15.40454 l 1.750148,-2.42536 -0.153477,-2.07255 c -0.54093,-7.30474 5.44011,-15.06519 15.893003,-20.6213 8.785739,-4.66996 18.351342,-5.85328 24.178224,-2.991 l 1.672291,0.82147 2.674083,-0.31088 c 5.78033,-0.672 9.98307,0.743 13.05882,4.3967 0.92388,1.09748 1.36938,1.38118 2.98716,1.90222 2.58946,0.83399 8.40018,3.80871 11.57236,5.92433 3.38866,2.25999 6.17412,5.12689 7.30863,7.52234 0.7463,1.57576 0.85854,2.09016 0.85854,3.93496 0,1.87057 -0.1046,2.3347 -0.88208,3.91398 -0.64029,1.30061 -1.25247,2.08453 -2.2333,2.85984 -2.70196,2.13577 -4.98791,2.95694 -12.36275,4.44098 -6.84335,1.37709 -6.43912,1.24498 -7.00082,2.28799 -0.71162,1.32139 -3.36702,3.75305 -4.83174,4.42462 -1.01717,0.46636 -1.83178,0.59184 -4.16734,0.6419 l -2.90304,0.0622 -0.82743,1.13249 c -2.21305,3.02895 -5.044751,4.78208 -8.549144,5.29286 l -2.072339,0.30204 -0.325294,1.26924 c -0.995543,3.8844 -4.714529,6.91754 -9.213483,7.51435 l -1.365988,0.1812 -3.500247,4.5312 c -6.241922,8.08039 -8.952833,10.22421 -13.137856,10.38957 -1.118375,0.0442 -2.331836,-0.0174 -2.69658,-0.13693 z m 3.666477,-4.41134 c 1.827358,-0.54267 4.164532,-2.75225 7.681157,-7.26182 1.472348,-1.88807 2.676996,-3.48235 2.676996,-3.54283 0,-0.0605 -0.625078,-0.25742 -1.389062,-0.43764 -4.058605,-0.9574 -10.665141,-3.90739 -14.436726,-6.44636 -1.20986,-0.81446 -2.26727,-1.48083 -2.349799,-1.48083 -0.08253,0 -0.08342,2.23242 -0.002,4.96093 0.26116,8.74943 1.807903,13.05101 5.117006,14.23067 1.284408,0.45788 1.080454,0.45955 2.702405,-0.0221 z m -3.534398,-4.44577 c -1.308215,-0.6092 -3.040783,-2.26161 -3.040783,-2.90009 0,-0.63898 0.831546,-1.50487 1.445178,-1.50487 0.341783,0 1.115137,0.41248 1.718566,0.91663 0.603429,0.50415 1.537428,0.99377 2.075554,1.08803 1.386796,0.24294 2.169036,0.80352 2.169036,1.55441 0,1.54383 -2.026125,1.93624 -4.367551,0.84589 z m 22.524374,-11.22071 c 0.600157,-0.31316 1.392187,-0.92709 1.760064,-1.36429 0.712964,-0.84731 1.634162,-2.98263 1.476742,-3.42306 -0.05207,-0.14568 -1.848426,-1.16562 -3.991906,-2.26653 -12.058997,-6.19362 -18.452475,-10.21125 -21.761628,-13.6749 l -2.05389,-2.14978 -0.618782,0.75809 c -0.340329,0.41695 -1.129647,1.75568 -1.75404,2.97495 -1.062118,2.07404 -1.135258,2.3553 -1.135258,4.36563 0,2.65952 0.742536,4.35997 2.831685,6.48469 3.377627,3.43515 10.927653,7.23402 17.144357,8.62636 2.553319,0.57186 6.696599,0.40252 8.102656,-0.33116 z m -18.094695,-6.41409 c -3.341977,-1.67271 -7.735045,-6.08435 -7.735045,-7.76774 0,-0.80087 1.044802,-1.61641 1.772983,-1.38393 0.261786,0.0836 1.045689,0.92272 1.742005,1.86476 1.341078,1.81434 3.656254,3.69534 6.193174,5.03175 1.314072,0.69223 1.54828,0.92857 1.617064,1.63175 0.08286,0.84706 -0.476732,1.68241 -1.127029,1.68241 -0.191036,0 -1.299454,-0.47655 -2.463152,-1.059 z m 29.512416,-2.65755 c 4.308033,-2.15275 5.481147,-6.01639 5.459057,-17.97928 -0.0129,-7.00591 -0.45729,-11.03724 -1.817039,-16.48476 -0.760245,-3.04578 -1.373592,-4.1459 -2.895052,-5.19269 -6.150941,-4.23196 -21.105784,0.0475 -29.523292,8.44828 -6.064011,6.05199 -6.674418,11.94065 -1.741561,16.80104 3.103008,3.05743 10.482482,7.55799 20.876811,12.73227 4.553178,2.26656 5.116187,2.48128 6.506178,2.48128 1.166567,0 1.898137,-0.18813 3.134898,-0.80614 z m -6.603037,-1.58343 c -1.03649,-0.54748 -1.41649,-1.24786 -1.143577,-2.10774 0.491545,-1.54872 4.365821,-0.4257 4.365821,1.2655 0,0.4096 -0.142875,0.8876 -0.3175,1.06222 -0.466969,0.46697 -1.794553,0.36643 -2.904744,-0.21998 z m -6.102438,-4.09777 c -1.364409,-0.92714 -1.673926,-1.57765 -1.139066,-2.39395 0.580401,-0.8858 1.658343,-0.83158 3.015716,0.15169 0.835821,0.60547 1.098031,0.97193 1.098031,1.53459 0,1.50219 -1.337262,1.82032 -2.974681,0.70767 z m -9.593027,-6.36398 c -5.623197,-3.88156 -7.800344,-6.71964 -8.016282,-10.44983 -0.137894,-2.38204 0.160921,-3.15907 1.21257,-3.15313 1.246292,0.007 1.483901,0.35553 1.655783,2.42858 0.08815,1.06315 0.383727,2.40924 0.656841,2.99132 0.705268,1.50312 3.016239,3.6711 6.204757,5.82083 3.20901,2.16355 3.478025,2.48805 2.908194,3.50802 -0.694301,1.24275 -1.423474,1.06198 -4.621863,-1.14579 z m 35.200399,5.87508 c 2.19603,-1.0226 3.55041,-3.05923 4.72121,-7.0994 0.97341,-3.35902 1.30684,-6.7741 1.15161,-11.7951 -0.19429,-6.28465 -1.05776,-9.29316 -3.39496,-11.82872 -1.4452,-1.56785 -3.25413,-2.29361 -6.1267,-2.45807 -1.2733,-0.0729 -2.3151,-0.0583 -2.3151,0.0325 0,0.0907 0.28916,1.16283 0.64258,2.38241 2.25979,7.79806 3.01875,20.50204 1.74786,29.25688 -0.13578,0.93537 -0.18637,1.79857 -0.11242,1.91823 0.26758,0.43294 2.382,0.19851 3.68592,-0.40868 z m 14.19999,-7.2058 c 5.14499,-1.07373 6.81251,-1.62372 8.392,-2.7679 1.51431,-1.09696 2.13409,-2.20726 2.13227,-3.81986 -0.003,-2.55592 -1.76515,-4.70311 -6.47882,-7.89396 -2.36426,-1.60045 -8.31085,-4.78546 -8.52845,-4.56786 -0.0625,0.0625 0.0403,1.04645 0.22833,2.18665 0.50654,3.07143 0.43533,11.27077 -0.12485,14.37622 -0.24937,1.38244 -0.51762,2.7219 -0.59611,2.97656 -0.0785,0.25466 -0.0184,0.46302 0.13351,0.46302 0.15192,0 2.33088,-0.42879 4.84212,-0.95287 z"
       id="path248" /></g></svg>
